Coordinates
version=1
nRows=7
nColumns=40
inDegrees=yes

Units are S.I. units (second, meters, Newtons, ...)
If the header above contains a line with 'inDegrees', this indicates whether rotational values are in degrees (yes) or radians (no).

endheader
time	pelvis_tilt	pelvis_list	pelvis_rotation	pelvis_tx	pelvis_ty	pelvis_tz	hip_flexion_r	hip_adduction_r	hip_rotation_r	knee_angle_r	knee_angle_r_beta	ankle_angle_r	subtalar_angle_r	mtp_angle_r	hip_flexion_l	hip_adduction_l	hip_rotation_l	knee_angle_l	knee_angle_l_beta	ankle_angle_l	subtalar_angle_l	mtp_angle_l	lumbar_extension	lumbar_bending	lumbar_rotation	arm_flex_r	arm_add_r	arm_rot_r	elbow_flex_r	pro_sup_r	wrist_flex_r	wrist_dev_r	arm_flex_l	arm_add_l	arm_rot_l	elbow_flex_l	pro_sup_l	wrist_flex_l	wrist_dev_l
      0.73000000	      3.57912550	     -8.66698105	     89.56431561	      0.18719659	      0.92571760	     -0.36089798	     22.90237910	      7.50970461	     -5.66760280	     17.73666040	      0.30956312	      2.49358811	      0.00000000	      0.00000000	     22.27896154	     -8.56876885	     -1.88963275	     60.57686388	      1.05726573	     -3.39673262	      0.00000000	      0.00000000	      0.84505589	      3.87522928	     -1.89086364	      0.00000000	     -0.00000000	     -0.00000000	      0.00000000	      0.00000000	      0.00000000	      0.00000000	     -0.00000000	      0.00000000	     -0.00000000	      0.00000000	      0.00000000	      0.00000000	     -0.00000000
      0.74000000	      3.53083385	     -8.71596083	     89.51331604	      0.18814696	      0.92890960	     -0.37780372	     20.97956846	      7.62067060	     -5.38531078	     16.29395248	      0.28438312	      2.62734324	      0.00000000	      0.00000000	     24.14760489	     -8.55284550	     -2.09280195	     59.05494630	      1.03070325	     -2.09701686	      0.00000000	      0.00000000	      0.72261013	      3.71866477	     -1.60599530	      0.00000000	      0.00000000	      0.00000000	      0.00000000	      0.00000000	      0.00000000	      0.00000000	      0.00000000	      0.00000000	      0.00000000	      0.00000000	      0.00000000	      0.00000000	      0.00000000
      0.75000000	      3.30013196	     -9.06584355	     89.45252743	      0.18891424	      0.93123695	     -0.39445704	     19.62518326	      7.46535396	     -5.29368854	     15.29694432	      0.26698204	      3.17159456	      0.00000000	      0.00000000	     26.19387817	     -8.29342998	     -2.40597943	     57.06136032	      0.99590861	     -1.14021194	      0.00000000	      0.00000000	      0.94636694	      3.37981245	     -1.32867502	      0.00000000	      0.00000000	      0.00000000	      0.00000000	      0.00000000	      0.00000000	      0.00000000	      0.00000000	      0.00000000	      0.00000000	      0.00000000	      0.00000000	      0.00000000	      0.00000000
      0.76000000	      3.19792354	     -8.93484233	     89.37005366	      0.18974212	      0.93402073	     -0.41156073	     17.35079484	      7.55238614	     -4.70945803	     13.53446619	      0.23622100	      3.01695016	      0.00000000	      0.00000000	     27.44007293	     -8.12879018	     -2.71741289	     54.50643738	      0.95131680	     -0.25372763	      0.00000000	      0.00000000	      0.61912847	      3.16985912	     -1.07259741	      0.00000000	      0.00000000	      0.00000000	      0.00000000	      0.00000000	      0.00000000	      0.00000000	      0.00000000	      0.00000000	      0.00000000	      0.00000000	      0.00000000	      0.00000000	      0.00000000
      0.77000000	      3.01217717	     -9.05415320	     89.25871974	      0.19042657	      0.93587292	     -0.42851417	     15.55771099	      7.48952101	     -4.34558400	     12.15683522	      0.21217680	      3.16056059	      0.00000000	      0.00000000	     28.81259462	     -7.86148640	     -3.14496562	     51.59046134	      0.90042341	      0.28416740	      0.00000000	      0.00000000	      0.59315562	      2.88907167	     -0.76703317	      0.00000000	      0.00000000	      0.00000000	      0.00000000	      0.00000000	      0.00000000	      0.00000000	      0.00000000	      0.00000000	      0.00000000	      0.00000000	      0.00000000	      0.00000000	      0.00000000
      0.78000000	      2.85822145	     -9.14453725	     89.12640957	      0.19107273	      0.93724694	     -0.44556715	     13.73704939	      7.45632536	     -3.95643953	     10.78096781	      0.18816338	      3.35365403	      0.00000000	      0.00000000	     29.98408065	     -7.60257465	     -3.61150876	     48.32565921	      0.84344187	      0.64201478	      0.00000000	      0.00000000	      0.54044113	      2.65693298	     -0.43671850	      0.00000000	      0.00000000	      0.00000000	      0.00000000	      0.00000000	      0.00000000	      0.00000000	      0.00000000	      0.00000000	      0.00000000	      0.00000000	      0.00000000	      0.00000000	      0.00000000
      0.79000000	      2.71944601	     -9.26821400	     88.94660122	      0.19168648	      0.93800822	     -0.46269065	     11.97780500	      7.43573919	     -3.55398546	      9.44791952	      0.16489730	      3.53532244	      0.00000000	      0.00000000	     31.03619896	     -7.34982633	     -4.14135276	     44.76160818	      0.78123744	      0.81102829	      0.00000000	      0.00000000	      0.53449474	      2.45172107	     -0.05123902	      0.00000000	      0.00000000	      0.00000000	      0.00000000	      0.00000000	      0.00000000	      0.00000000	      0.00000000	      0.00000000	      0.00000000	      0.00000000	      0.00000000	      0.00000000	      0.00000000
